/* XPM */
static char *a4e7af6c2c744058d6836c52db6922bcjDg3QmIiM5SleG7j[] = {
/* columns rows colors chars-per-pixel */
"32 30 58 1 ",
"  c #010101",
". c #060606",
"X c #0B0B0B",
"o c #0C0C0C",
"O c gray7",
"+ c #151515",
"@ c #181818",
"# c gray11",
"$ c gray14",
"% c #2A2A2A",
"& c #2F2F2F",
"* c gray22",
"= c gray24",
"- c gray27",
"; c #494949",
": c #4B4B4B",
"> c #5B5B5B",
", c #5F5F5F",
"< c #656565",
"1 c #686868",
"2 c #717171",
"3 c #767676",
"4 c gray47",
"5 c #7C7C7C",
"6 c #818181",
"7 c #838383",
"8 c #898989",
"9 c gray58",
"0 c #9A9A9A",
"q c #9F9F9F",
"w c gray64",
"e c #A5A5A5",
"r c gray66",
"t c #AFAFAF",
"y c #B2B2B2",
"u c gray71",
"i c gray72",
"p c gray",
"a c gray76",
"s c #C5C5C5",
"d c #CBCBCB",
"f c gray80",
"g c #D0D0D0",
"h c gray84",
"j c gray86",
"k c gainsboro",
"l c gray89",
"z c #E4E4E4",
"x c #EAEAEA",
"c c gray92",
"v c #EFEFEF",
"b c #F0EFEF",
"n c #F0EFF0",
"m c gray94",
"M c #F4F4F4",
"N c #F6F6F6",
"B c #F9F9F9",
"V c white",
/* pixels */
"mvmvvmmvvmmvmvvvvvvvvbvvvvvvvmvm",
"vmvvvnmvvvnvvmvvvvvmvmvvvbvvvnvv",
"mvvvvvvvvvnvmxvvvmmvvvvvvvvvvvvv",
"bvvvvvvvvmvvmjxNmsaxvvvvvmvvvvmv",
"vbvvvvmmvvxvmaBzy@7VNvvvmvmvvvvv",
"vmvvmvxzvNBBd-4*  $4tNNmlvmvvvvm",
"vvmvmmsgVgyi$   OX   3xkhmvvvvvv",
"vvmmmNhra<   O+o  .+@ %eNvmvvvmv",
"mvvmzdjz< $+X        @  fNvvvmmm",
"vvmlhxmV8 +           # 4Nvmxhmm",
"mvmmmmmr X.            @ rVvpzmm",
"mvvvvBf  X              X 5qkNvm",
"vvvmvNs +               O $lBvvv",
"vmvmvBt @               @ 0Vvvvv",
"vvvvvNs O               @ yNvbvv",
"vvvvvNf O.              @ yNvvvv",
"vvvvvNs O               @ iBvvvv",
"vvvvvNj  X             o :xmvvmv",
"vvvvvvj: X             + 5Nvvvvv",
"bvvvvNh, #             O <Nvvvvv",
"vvvmvBr % @           OO  dNvmvv",
"vnvvmm7pl4 oOX      O#  8u1xmvmv",
"vmvvmsgBmv8   O@@+o.  =qNVfyvvvv",
"vvvmllNvvNk :$     o>0xflvBsuBvm",
"vvvvmmmmmVwqmla9q2&OjVmjvvxlpzNv",
"mvvbvvvNaurmmmNBBNx5emvmvvvNxfvm",
"nvvvmbvmkjvmmmvvvvmmxmmvvvbvmmxm",
"mvvvvvmvmNvvmmvmvvvvmvvvvvvmnvmm",
"mvvvvmvvvvvvvvvvvvvvvvvvvvvvvvvv",
"mvvvvvvvmvvvmvvvvvvvnmvvvbmvvvvm"
};
