/* XPM */
static char *_89d88323d5347adac5c3f0edade46d8sL99WuEle4214fJK[] = {
/* columns rows colors chars-per-pixel */
"30 32 93 2 ",
"   c None",
".  c #000001",
"X  c #131A18",
"o  c #4E4000",
"O  c #6E6857",
"+  c #987F1B",
"@  c #917D2A",
"#  c #817D6E",
"$  c #A58400",
"%  c #AD8A00",
"&  c #B08D00",
"*  c #B79200",
"=  c #BB9600",
"-  c #BF9800",
";  c #A48B28",
":  c #C59D00",
">  c #CBA200",
",  c #D1A600",
"<  c #D4AA00",
"1  c #DAAE00",
"2  c #DEB100",
"3  c #DEB410",
"4  c #E3B500",
"5  c #E7B900",
"6  c #EBBC00",
"7  c #E2B80C",
"8  c #EABD0C",
"9  c #EABF15",
"0  c #E4BC1D",
"q  c #CBAA24",
"w  c #CBAB2B",
"e  c #CBAD34",
"r  c #E2BB23",
"t  c #F3C200",
"y  c #F9C600",
"u  c #FECC03",
"i  c #F2C40C",
"p  c #FFCE0B",
"a  c #FFD202",
"s  c #FFDC00",
"d  c #FFD40B",
"f  c #FFDC0C",
"g  c #EBC012",
"h  c #EDC31C",
"j  c #F4C713",
"k  c #FFCF12",
"l  c #F0C61C",
"z  c #F3C81C",
"x  c #FFD115",
"c  c #FFDA14",
"v  c #FFD11C",
"b  c #FFDB1B",
"n  c #FFE317",
"m  c #FFE11E",
"M  c #EEC520",
"N  c #E5C02D",
"B  c #F4CA23",
"V  c #FFD324",
"C  c #FFDC23",
"Z  c #FFD52C",
"A  c #FFDB2C",
"S  c #EAC635",
"D  c #ECC83E",
"F  c #FFD633",
"G  c #FFDA32",
"H  c #FFD739",
"J  c #FFD83D",
"K  c #FFE224",
"L  c #FFE32B",
"P  c #FFE631",
"I  c #FFE43E",
"U  c #A08D46",
"Y  c #C0A742",
"T  c #C3A942",
"R  c #CBAF48",
"E  c #E3C342",
"W  c #ECCD49",
"Q  c #F2D044",
"!  c #FFD943",
"~  c #FFDB4C",
"^  c #FFDD54",
"/  c #FFDE5C",
"(  c #FFE445",
")  c #FFE947",
"_  c #FFE24C",
"`  c #FFE352",
"'  c #FFED55",
"]  c #FFE55A",
"[  c #FEDF63",
"{  c #FFE164",
"}  c #FFE16B",
"|  c #FFE373",
" . c #FFE47A",
/* pixels */
"                        0 h z z h z h 9                     ",
"                  0 B Z L L L A A C K b c j g               ",
"                B L G Z G H F F Z Z Z V V b c d 6           ",
"            h L A H G H J ! J J J H F Z V v v x f t         ",
"          h L A F H J ! ! ! ~ ! ! ! ( G G A B v k d a       ",
"        h K Z F J ! ! ~ ~ ^ ~ ~ ~ ! w ; q Z V v x p a a     ",
"      g m Z F H ! ! ~ ^ / / / ^ ~ R O X . q Z v x x u u t   ",
"    3 m V Z F J ! ~ ^ / / { [ [ ] U O o . ; Z V x k p d s , ",
"    j b V F H J ~ ~ / [ { } } [ { Y . . . w G V V x f y     ",
"  7 n V V F J ! ~ ^ / [ | | | | } / T @ e J F Z C c 8       ",
"  i c V V F J ! ~ ^ [ { |  . .| { { ] ` ( J G L h           ",
"  f x v Z Z H ! ~ ^ / } }  . .} } ] ^ ~ ! ( F r             ",
"4 f x V V F H J ~ ^ / [ } } } } { / ^ _ ) S                 ",
"6 f x v V Z H J ! ^ / / [ [ { [ / / ' Q                     ",
"t d p x V Z H H ! ~ ~ ^ / / / / ] ` E                       ",
"6 d p x x V Z H J ! ~ ~ ^ ^ ^ ` W                           ",
"5 a p k x V V F F J ! ! ~ ~ ~ _ D                           ",
"5 u u p k x V Z Z F H J J J ! J ) I N                       ",
"2 a u u k x v V Z Z F F H H G J H Z P B                     ",
"< u y u p k x v V V V Z Z Z F Z Z Z V C b g                 ",
"  y t y u u k k k v V V V V V V V v v x x c p 2             ",
"  1 t t y u u d k k x k v x v v x x k k p u u s 4           ",
"  : y 6 t y u u p p k k x x p x k p p p u u y t y t >       ",
"    < 6 6 6 t y u u u u u p p p p u u u y y t 5 4 4 5 >     ",
"    - 6 4 5 6 t y y y y u u u y u y y y t 6 5 4 2 < , > 2 $ ",
"      : 6 2 4 5 6 6 t t t t y t t t 6 6 5 4 2 1 < , : : =   ",
"        : 4 2 2 4 4 5 5 6 6 6 6 5 5 4 4 2 1 < < > > : :     ",
"          : 2 1 1 1 2 2 2 4 4 2 2 2 1 1 < < > : : : -       ",
"            = 1 < < < 1 1 1 1 1 < < < > > > : : > %         ",
"                = 1 , > > > > > > > > : : : > - $           ",
"                  % * > < > > > : > > > : & $               ",
"                        $ % & % % % $ $                     "
};
